<?xml version="1.0" encoding="UTF-8"?>
<!-- Generator: Adobe Illustrator 26.3.1, SVG Export Plug-In . SVG Version: 6.00 Build 0)  -->
<svg xmlns="http://www.w3.org/2000/svg" xmlns:xlink="http://www.w3.org/1999/xlink" version="1.1" id="Layer_1" x="0px" y="0px" viewBox="0 0 452.9 139" style="enable-background:new 0 0 452.9 139;" xml:space="preserve">
<style type="text/css">
	.st0{fill:#FFFFFF;}
	.st1{fill:#D73749;}
	.st2{fill:#203A70;}
</style>
<g>
	<g>
		<path class="st0" d="M449.9,119c0,3.3-2.4,6-5.7,6s-5.7-2.7-5.7-6c0-3.3,2.2-6,5.7-6C447.3,113.1,449.9,115.7,449.9,119     M452.2,119c0-4.4-3.3-8-8-8c-4.6,0-8,3.8-8,8.2c0,4.4,3.3,8,8,8C448.8,127.2,452.2,123.5,452.2,119 M432,111.3h-2.2v15.5h2.2    V111.3z M432.3,105.3h-2.7v2.4h2.7V105.3z M420.1,120.6c0-4.6,2.7-7.1,6.2-7.1h0.2v-2.4c-2.9-0.2-5.1,1.8-6.2,4.2v-4h-2.2v15.5    h2.2v-6.2H420.1z M406.2,119c2,0,3.3,0.2,4.6,0.7v1.5c0,2.4-2.4,4.2-5.1,4.2c-2,0-4-1.1-4-3.1C401.5,120.1,403.3,119,406.2,119     M406,113.1c2.9,0,4.6,1.3,4.6,4.2v0.4c-1.3-0.4-2.9-0.7-4.6-0.7c-4,0-6.6,1.8-6.6,5.1c0,3.3,2.9,4.9,5.7,4.9    c2.7,0,4.4-1.3,5.5-2.7v2.4h2.2v-9.5c0-4-2.4-6.2-6.6-6.2c-2.2,0-4,0.4-5.5,1.3l0.7,2C402.9,113.7,404.2,113.1,406,113.1     M391.6,113.3h4.9v-2h-4.9v-4.6h-2.2v4.6h-2.2v2h2.2v9.3c0,3.1,2,4.4,4.4,4.4c1.1,0,2-0.2,2.9-0.7v-2c-0.9,0.4-1.5,0.4-2.2,0.4    c-1.5,0-2.7-0.7-2.7-2.7v-8.8H391.6z M372.8,117.9c0-2.9,2-4.9,4.6-4.9c2.7,0,4.2,1.8,4.2,4.6v9.1h2.2v-9.5c0-3.8-2.2-6.2-6-6.2    c-2.7,0-4.2,1.3-5.3,3.1v-2.7h-2.2V127h2.2v-9.1H372.8z M363.3,116.4c0,4.9-3.3,8.6-8.2,8.6c-4.9,0-8.2-4-8.2-8.6    c0-4.9,3.3-8.6,8.2-8.6C359.7,107.8,363.3,111.5,363.3,116.4 M365.7,116.4c0-5.7-4.2-10.8-10.6-10.8c-6.4,0-10.6,5.1-10.6,10.8    c0,5.7,4.2,10.8,10.6,10.8C361.3,127.2,365.7,122.1,365.7,116.4 M337,111.5l0.4,1.1c2.2-0.4,3.3-1.8,3.3-4V106h-2.7v3.1h1.1    C339,110.2,338.3,111.1,337,111.5 M332.1,104.9h-2.2v21.9h2.2V104.9z M304.5,118.1c0.2-3.1,2.4-5.3,5.1-5.3c3.1,0,4.6,2.4,4.9,5.3    H304.5z M304.5,119.9h12.2c0-0.2,0-0.4,0-0.7c0-4.6-2.7-8.2-7.3-8.2c-4.2,0-7.3,3.5-7.3,8c0,4.9,3.5,8,7.7,8    c2.9,0,4.9-1.1,6.4-2.9l-1.3-1.3c-1.3,1.3-2.7,2.2-4.9,2.2C307.1,125.2,304.7,123.2,304.5,119.9 M295.6,119c0,3.5-2.7,6-5.5,6    c-2.9,0-5.5-2.4-5.5-6c0-3.8,2.4-6,5.5-6C293,113.1,295.6,115.5,295.6,119 M297.9,126.8v-21.9h-2.2v9.3c-1.1-1.8-3.1-3.3-6-3.3    c-3.8,0-7.3,3.1-7.3,8c0,5.1,3.8,8,7.3,8c2.9,0,4.6-1.5,6-3.5v3.1h2.2V126.8z M265.4,113.3h4.9v-2h-4.9v-4.6h-2.2v4.6h-2.2v2h2.2    v9.3c0,3.1,1.8,4.4,4.4,4.4c1.1,0,2-0.2,2.9-0.7v-2c-0.9,0.4-1.5,0.4-2.2,0.4c-1.5,0-2.7-0.7-2.7-2.7v-8.8H265.4z M258.1,122.3    L258.1,122.3c0-2.9-2.7-3.8-4.9-4.4c-2-0.7-4-1.1-4-2.7l0,0c0-1.3,1.1-2.2,3.1-2.2c1.5,0,3.1,0.7,4.6,1.5l1.1-1.8    c-1.5-1.1-3.8-1.8-5.5-1.8c-3.1,0-5.3,1.8-5.3,4.4l0,0c0,2.9,2.7,3.8,5.1,4.4c2,0.7,3.8,1.1,3.8,2.7l0,0c0,1.5-1.3,2.4-3.1,2.4    s-3.8-0.7-5.3-2l-1.1,1.5c1.8,1.3,4.2,2.2,6.4,2.2C255.6,127,258.1,125.4,258.1,122.3 M242.6,105.8h-15v21h15.3v-2.2H230v-7.3    h11.5V115H230V108h12.8v-2.2H242.6z M218.3,111.5l0.4,1.1c2.2-0.4,3.3-1.8,3.3-4V106h-2.7v3.1h1.1    C220.3,110.2,219.8,111.1,218.3,111.5 M213.4,104.9h-2.2v21.9h2.2V104.9z M185.8,118.1c0.2-3.1,2.4-5.3,5.1-5.3    c3.1,0,4.6,2.4,4.9,5.3H185.8z M185.8,119.9h12.2c0-0.2,0-0.4,0-0.7c0-4.6-2.7-8.2-7.3-8.2c-4.2,0-7.3,3.5-7.3,8    c0,4.9,3.5,8,7.7,8c2.9,0,4.9-1.1,6.4-2.9l-1.3-1.3c-1.3,1.3-2.7,2.2-4.9,2.2C188.4,125.2,186,123.2,185.8,119.9 M176.9,119    c0,3.5-2.7,6-5.5,6c-2.9,0-5.5-2.4-5.5-6c0-3.8,2.4-6,5.5-6C174.3,113.1,176.9,115.5,176.9,119 M179.1,126.8v-21.9h-2.2v9.3    c-1.1-1.8-3.1-3.3-6-3.3c-3.8,0-7.3,3.1-7.3,8c0,5.1,3.8,8,7.3,8c2.9,0,4.6-1.5,6-3.5v3.1h2.2V126.8z"></path>
		<path class="st0" d="M406.4,86.5L406.4,86.5c0-2.9-2.7-3.8-4.9-4.4c-2-0.7-4-1.1-4-2.7l0,0c0-1.3,1.1-2.2,2.9-2.2    c1.5,0,3.1,0.7,4.6,1.5l1.1-1.8c-1.5-1.1-3.8-1.8-5.5-1.8c-3.1,0-5.3,1.8-5.3,4.4l0,0c0,2.9,2.7,3.8,5.1,4.4    c2,0.7,3.8,1.1,3.8,2.7l0,0c0,1.5-1.3,2.4-3.1,2.4c-1.8,0-3.8-0.7-5.3-2l-1.1,1.5c1.8,1.3,4.2,2.2,6.4,2.2    C404,91.2,406.4,89.6,406.4,86.5 M379.6,82.3c0.2-3.1,2.4-5.3,5.1-5.3c3.1,0,4.6,2.4,4.9,5.3H379.6z M379.6,84.1h12.2    c0-0.2,0-0.4,0-0.7c0-4.6-2.7-8.2-7.3-8.2c-4.2,0-7.3,3.5-7.3,8c0,4.9,3.5,8,7.7,8c2.9,0,4.9-1.1,6.4-2.9L390,87    c-1.3,1.3-2.7,2.2-4.9,2.2C382.3,89.4,379.9,87.4,379.6,84.1 M370.8,84.3c0,2.9-2,4.9-4.6,4.9c-2.7,0-4.2-1.8-4.2-4.6v-9.1h-2.2    V85c0,3.8,2.2,6.2,6,6.2c2.7,0,4.2-1.3,5.3-3.1V91h2.2V75.5H371v8.8H370.8z M352.5,83.2c0,3.5-2.7,6-5.5,6s-5.5-2.4-5.5-6    c0-3.8,2.4-6,5.5-6C349.8,77.2,352.5,79.7,352.5,83.2 M354.7,95.8V75.5h-2.2v2.9c-1.1-1.8-3.1-3.3-6-3.3c-3.8,0-7.3,2.9-7.3,8    c0,5.1,3.8,8,7.3,8c2.9,0,4.6-1.5,6-3.5v8h2.2V95.8z M335,75.5h-2.2V91h2.2V75.5z M335.2,69.5h-2.7v2.4h2.7V69.5z M327.5,69.1    h-2.2V91h2.2V69.1z M318.4,83.2c0,3.8-2.4,6-5.5,6c-2.9,0-5.5-2.4-5.5-6s2.7-6,5.5-6C316,77.2,318.4,79.7,318.4,83.2 M320.8,83.2    c0-5.1-3.8-8-7.3-8c-2.9,0-4.6,1.5-6,3.5v-9.5h-2.2V91h2.2v-2.9c1.1,1.8,3.1,3.3,6,3.3C317.1,91.2,320.8,88.3,320.8,83.2     M297.9,84.3c0,2.9-2,4.9-4.6,4.9c-2.7,0-4.2-1.8-4.2-4.6v-9.1h-2.2V85c0,3.8,2.2,6.2,6,6.2c2.7,0,4.2-1.3,5.3-3.1V91h2.2V75.5    h-2.2v8.8H297.9z M280.4,83.2c0,3.8-2.4,6-5.5,6c-2.9,0-5.5-2.4-5.5-6s2.7-6,5.5-6C277.7,77.2,280.4,79.7,280.4,83.2 M282.6,83.2    c0-5.1-3.8-8-7.3-8c-2.9,0-4.6,1.5-6,3.5v-3.3h-2.2v20.1h2.2v-7.7c1.1,1.8,3.1,3.3,6,3.3C279.1,91.2,282.6,88.3,282.6,83.2     M253.9,86.5L253.9,86.5c0-2.9-2.7-3.8-4.9-4.4c-2-0.7-4-1.1-4-2.7l0,0c0-1.3,1.1-2.2,2.9-2.2c1.5,0,3.1,0.7,4.6,1.5l1.1-1.8    c-1.5-1.1-3.8-1.8-5.5-1.8c-3.1,0-5.3,1.8-5.3,4.4l0,0c0,2.9,2.7,3.8,5.1,4.4c2,0.7,3.8,1.1,3.8,2.7l0,0c0,1.5-1.3,2.4-3.1,2.4    s-3.8-0.7-5.3-2l-1.1,1.5c1.8,1.3,4.2,2.2,6.4,2.2C251.4,91.2,253.9,89.6,253.9,86.5 M227.1,82.3c0.2-3.1,2.4-5.3,5.1-5.3    c3.1,0,4.6,2.4,4.9,5.3H227.1z M227.1,84.1h12.2c0-0.2,0-0.4,0-0.7c0-4.6-2.7-8.2-7.3-8.2c-4.2,0-7.3,3.5-7.3,8c0,4.9,3.5,8,7.7,8    c2.9,0,4.9-1.1,6.4-2.9l-1.3-1.3c-1.3,1.3-2.7,2.2-4.9,2.2C229.8,89.4,227.3,87.4,227.1,84.1 M220.5,69.1h-2.2V91h2.2V69.1z     M211.6,83.2c0,3.3-2.4,6-5.7,6s-5.7-2.7-5.7-6c0-3.3,2.2-6,5.7-6C209.2,77.2,211.6,79.9,211.6,83.2 M213.8,83.2c0-4.4-3.3-8-8-8    s-8,3.8-8,8.2c0,4.4,3.3,8,8,8S213.8,87.6,213.8,83.2 M195.5,88.3L194,87c-1.3,1.3-2.7,2.2-4.6,2.2c-3.3,0-5.7-2.7-5.7-6    c0-3.3,2.4-6,5.5-6c2,0,3.5,1.1,4.6,2.4l1.5-1.5c-1.3-1.5-3.3-2.7-6.2-2.7c-4.4,0-8,3.8-8,8.2c0,4.4,3.3,8,8,8    C192.2,91.4,194,90.1,195.5,88.3 M165.9,82.3c0.2-3.1,2.4-5.3,5.1-5.3c3.1,0,4.6,2.4,4.9,5.3H165.9z M165.9,84.1H178    c0-0.2,0-0.4,0-0.7c0-4.6-2.7-8.2-7.3-8.2c-4.2,0-7.3,3.5-7.3,8c0,4.9,3.5,8,7.7,8c2.9,0,4.9-1.1,6.4-2.9l-1.3-1.3    c-1.3,1.3-2.7,2.2-4.9,2.2C168.7,89.4,166.3,87.4,165.9,84.1 M171.4,73.3l3.3-3.3l-2.2-1.1l-2.9,4.4H171.4z"></path>
		<path class="st0" d="M328.6,50.7L328.6,50.7c0-2.9-2.7-3.8-4.9-4.4c-2-0.7-4-1.1-4-2.7l0,0c0-1.3,1.1-2.2,3.1-2.2    c1.5,0,3.1,0.7,4.6,1.5l1.1-1.8c-1.5-1.1-3.8-1.8-5.5-1.8c-3.1,0-5.3,1.8-5.3,4.4l0,0c0,2.9,2.7,3.8,5.1,4.4    c2,0.7,3.8,1.1,3.8,2.7l0,0c0,1.5-1.3,2.4-3.1,2.4c-1.8,0-3.8-0.7-5.3-2l-1.1,1.5c1.8,1.3,4.2,2.2,6.4,2.2    C326.1,55.4,328.6,53.8,328.6,50.7 M301.8,46.5c0.2-3.1,2.4-5.3,5.1-5.3c3.1,0,4.6,2.4,4.9,5.3H301.8z M301.8,48.3H314    c0-0.2,0-0.4,0-0.7c0-4.6-2.7-8.2-7.3-8.2c-4.2,0-7.3,3.5-7.3,8c0,4.9,3.5,8,7.7,8c2.9,0,4.9-1.1,6.4-2.9l-1.3-1.3    c-1.3,1.3-2.7,2.2-4.9,2.2C304.5,53.6,302.1,51.6,301.8,48.3 M293,47.4c0,3.5-2.7,6-5.5,6c-2.9,0-5.5-2.4-5.5-6c0-3.8,2.4-6,5.5-6    C290.3,41.4,293,43.9,293,47.4 M295.2,55.1V33.3H293v9.3c-1.1-1.8-3.1-3.3-6-3.3c-3.8,0-7.3,3.1-7.3,8c0,5.1,3.8,8,7.3,8    c2.9,0,4.6-1.5,6-3.5v3.1h2.2V55.1z M266.2,33.3H264v21.9h2.2V33.3z M258.7,39.7h-2.2v15.5h2.2V39.7z M258.9,33.7h-2.7v2.4h2.7    V33.7z M239.9,46.5c0.2-3.1,2.4-5.3,5.1-5.3c3.1,0,4.6,2.4,4.9,5.3H239.9z M239.9,48.3h12.2c0-0.2,0-0.4,0-0.7    c0-4.6-2.7-8.2-7.3-8.2c-4.2,0-7.3,3.5-7.3,8c0,4.9,3.5,8,7.7,8c2.9,0,4.9-1.1,6.4-2.9l-1.3-1.3c-1.3,1.3-2.7,2.2-4.9,2.2    C242.8,53.6,240.4,51.6,239.9,48.3 M234.6,50.7L234.6,50.7c0-2.9-2.7-3.8-4.9-4.4c-2-0.7-4-1.1-4-2.7l0,0c0-1.3,1.1-2.2,2.9-2.2    c1.5,0,3.1,0.7,4.6,1.5l1.1-1.8c-1.5-1.1-3.8-1.8-5.5-1.8c-3.1,0-5.3,1.8-5.3,4.4l0,0c0,2.9,2.7,3.8,5.1,4.4    c2,0.7,3.8,1.1,3.8,2.7l0,0c0,1.5-1.3,2.4-3.1,2.4s-3.8-0.7-5.3-2l-1.1,1.5c1.8,1.3,4.2,2.2,6.4,2.2    C232.2,55.4,234.6,53.8,234.6,50.7 M208.1,46.3c0-2.9,2-4.9,4.6-4.9s4.2,1.8,4.2,4.6v9.1h2.2v-9.5c0-3.8-2.2-6.2-6-6.2    c-2.7,0-4.2,1.3-5.3,3.1v-2.7h-2.2v15.5h2.2v-9.1H208.1z M199.3,47.4c0,3.3-2.4,6-5.7,6c-3.3,0-5.7-2.7-5.7-6c0-3.3,2.2-6,5.7-6    C196.8,41.4,199.3,44.1,199.3,47.4 M201.7,47.4c0-4.4-3.3-8-8-8s-8,3.8-8,8.2s3.3,8,8,8C198.2,55.6,201.7,51.8,201.7,47.4     M182.9,51.8l-1.5-1.5c-2,2-4,3.1-6.9,3.1c-4.6,0-8.2-3.8-8.2-8.6s3.5-8.6,8.2-8.6c2.9,0,4.9,1.1,6.6,2.9l1.5-1.8    c-2-2-4.4-3.3-8.2-3.3c-6.2,0-10.6,4.9-10.6,10.8c0,6,4.4,10.8,10.4,10.8C178.3,55.6,180.7,54,182.9,51.8"></path>
	</g>
	<g>
		<polygon class="st1" points="0.7,32.2 8,138.7 129.2,127.2 121.2,19.3   "></polygon>
		<path class="st0" d="M57.8,60.7c4.6,0,8.6-3.8,8.6-8.6c0-4.6-3.8-8.6-8.6-8.6c-4.6,0-8.6,3.8-8.6,8.6S52.9,60.7,57.8,60.7z"></path>
		<path class="st2" d="M97.3,31.3c8.6,0,15.5-6.9,15.5-15.5S106,0.3,97.3,0.3S81.9,7.2,81.9,15.8C81.9,24.2,88.9,31.3,97.3,31.3z"></path>
		<path class="st2" d="M75.9,46.7c4.6,0,8.6-3.8,8.6-8.6c0-4.6-3.8-8.6-8.6-8.6c-4.6,0-8.6,3.8-8.6,8.6C67.3,43,71,46.7,75.9,46.7z"></path>
		<path class="st0" d="M17.8,69.1c0,0,31.4-3.5,45.3-1.8c16.4-10.8,32.7-27.2,46-24.3C94,68.4,86.1,75,84.7,76.4    c-1.1,1.1,17,35.1,15.7,44.2c0,0-22.3-18.8-32.1-30.9c-9.7,17-26.7,36.3-26.7,36.3s-2.4-24.3,4.2-40.7    C20.2,77,17.8,69.1,17.8,69.1z"></path>
	</g>
</g>
</svg>
